<svg xmlns="http://www.w3.org/2000/svg" viewBox="0 0 256 256" width="256" height="256">
  <!-- 1. Master Page Base Sheet -->
  <path d="M 52 14
           L 170 14
           L 222 66
           L 222 222
           C 222 234, 212 242, 198 242
           L 58 242
           C 44 242, 34 234, 34 222
           L 34 34
           C 34 20, 44 14, 52 14 Z"
        fill="#FFFFFF" stroke="#171717" stroke-width="13" stroke-linejoin="round" stroke-linecap="round"/>

  <!-- 2. Folded Top-Right Corner -->
  <path d="M 170 14 L 170 66 L 222 66 Z" fill="#E8EDF2" stroke="#171717" stroke-width="11" stroke-linejoin="round"/>

  <!-- 3. Bottom Color Accent Bar / Header -->
  <path d="M 34 176 L 34 222 C 34 234, 44 242, 58 242 L 198 242 C 212 242, 222 234, 222 222 L 222 176 Z"
        fill="#FFE477" stroke="#171717" stroke-width="11" stroke-linejoin="round"/>

  <!-- 4. Center Emblem / Format Graphic -->
  
  <g transform="translate(128, 100)">
    <!-- Curly Braces { } -->
    <text x="0" y="16" font-family="sans-serif" font-weight="900" font-size="64" fill="#171717" text-anchor="middle">{ }</text>
  </g>
</svg>